<mxfile host="app.diagrams.net" modified="2021-05-08T02:43:37.219Z" agent="5.0 (Windows NT 10.0; Win64; x64) AppleWebKit/537.36 (KHTML, like Gecko) Chrome/88.0.4324.190 Safari/537.36" etag="Hm_2nqA0EUVoh3ii1qE5" version="14.6.11" type="github">
  <diagram id="W44XO39bZFCJ-9GYB4Tx" name="Page-1">
    <mxGraphModel dx="1250" dy="582" grid="0" gridSize="10" guides="1" tooltips="1" connect="1" arrows="1" fold="1" page="1" pageScale="1" pageWidth="3300" pageHeight="4681" math="0" shadow="0">
      <root>
        <mxCell id="0" />
        <mxCell id="1" parent="0" />
        <mxCell id="6CQk6mnDEUpKW-EuEVKs-1" value="5" style="rounded=0;whiteSpace=wrap;html=1;" vertex="1" parent="1">
          <mxGeometry x="169" y="107" width="63" height="29" as="geometry" />
        </mxCell>
        <mxCell id="6CQk6mnDEUpKW-EuEVKs-2" value="8" style="rounded=0;whiteSpace=wrap;html=1;" vertex="1" parent="1">
          <mxGeometry x="232" y="107" width="63" height="29" as="geometry" />
        </mxCell>
        <mxCell id="6CQk6mnDEUpKW-EuEVKs-3" value="10" style="rounded=0;whiteSpace=wrap;html=1;" vertex="1" parent="1">
          <mxGeometry x="295" y="107" width="63" height="29" as="geometry" />
        </mxCell>
        <mxCell id="6CQk6mnDEUpKW-EuEVKs-4" value="15" style="rounded=0;whiteSpace=wrap;html=1;" vertex="1" parent="1">
          <mxGeometry x="358" y="107" width="63" height="29" as="geometry" />
        </mxCell>
        <mxCell id="6CQk6mnDEUpKW-EuEVKs-5" value="5" style="rounded=0;whiteSpace=wrap;html=1;" vertex="1" parent="1">
          <mxGeometry x="165" y="247" width="63" height="29" as="geometry" />
        </mxCell>
        <mxCell id="6CQk6mnDEUpKW-EuEVKs-6" value="8" style="rounded=0;whiteSpace=wrap;html=1;" vertex="1" parent="1">
          <mxGeometry x="228" y="247" width="63" height="29" as="geometry" />
        </mxCell>
        <mxCell id="6CQk6mnDEUpKW-EuEVKs-7" value="10" style="rounded=0;whiteSpace=wrap;html=1;" vertex="1" parent="1">
          <mxGeometry x="291" y="247" width="63" height="29" as="geometry" />
        </mxCell>
        <mxCell id="6CQk6mnDEUpKW-EuEVKs-8" value="15" style="rounded=0;whiteSpace=wrap;html=1;" vertex="1" parent="1">
          <mxGeometry x="354" y="247" width="63" height="29" as="geometry" />
        </mxCell>
        <mxCell id="6CQk6mnDEUpKW-EuEVKs-9" value="16" style="rounded=0;whiteSpace=wrap;html=1;fillColor=#f8cecc;strokeColor=#b85450;" vertex="1" parent="1">
          <mxGeometry x="417" y="247" width="63" height="29" as="geometry" />
        </mxCell>
        <mxCell id="6CQk6mnDEUpKW-EuEVKs-10" value="5" style="rounded=0;whiteSpace=wrap;html=1;" vertex="1" parent="1">
          <mxGeometry x="555" y="251" width="63" height="29" as="geometry" />
        </mxCell>
        <mxCell id="6CQk6mnDEUpKW-EuEVKs-21" style="edgeStyle=none;rounded=0;orthogonalLoop=1;jettySize=auto;html=1;exitX=1;exitY=0.5;exitDx=0;exitDy=0;" edge="1" parent="1" source="6CQk6mnDEUpKW-EuEVKs-11" target="6CQk6mnDEUpKW-EuEVKs-12">
          <mxGeometry relative="1" as="geometry" />
        </mxCell>
        <mxCell id="6CQk6mnDEUpKW-EuEVKs-11" value="8" style="rounded=0;whiteSpace=wrap;html=1;" vertex="1" parent="1">
          <mxGeometry x="618" y="251" width="63" height="29" as="geometry" />
        </mxCell>
        <mxCell id="6CQk6mnDEUpKW-EuEVKs-12" value="10" style="rounded=0;whiteSpace=wrap;html=1;" vertex="1" parent="1">
          <mxGeometry x="728" y="251" width="63" height="29" as="geometry" />
        </mxCell>
        <mxCell id="6CQk6mnDEUpKW-EuEVKs-13" value="15" style="rounded=0;whiteSpace=wrap;html=1;" vertex="1" parent="1">
          <mxGeometry x="791" y="251" width="63" height="29" as="geometry" />
        </mxCell>
        <mxCell id="6CQk6mnDEUpKW-EuEVKs-14" value="16" style="rounded=0;whiteSpace=wrap;html=1;" vertex="1" parent="1">
          <mxGeometry x="854" y="251" width="63" height="29" as="geometry" />
        </mxCell>
        <mxCell id="6CQk6mnDEUpKW-EuEVKs-19" style="edgeStyle=none;rounded=0;orthogonalLoop=1;jettySize=auto;html=1;exitX=0;exitY=1;exitDx=0;exitDy=0;entryX=0;entryY=0;entryDx=0;entryDy=0;" edge="1" parent="1" source="6CQk6mnDEUpKW-EuEVKs-18" target="6CQk6mnDEUpKW-EuEVKs-11">
          <mxGeometry relative="1" as="geometry" />
        </mxCell>
        <mxCell id="6CQk6mnDEUpKW-EuEVKs-20" style="edgeStyle=none;rounded=0;orthogonalLoop=1;jettySize=auto;html=1;exitX=1;exitY=1;exitDx=0;exitDy=0;entryX=0.5;entryY=0;entryDx=0;entryDy=0;" edge="1" parent="1" source="6CQk6mnDEUpKW-EuEVKs-18" target="6CQk6mnDEUpKW-EuEVKs-13">
          <mxGeometry relative="1" as="geometry" />
        </mxCell>
        <mxCell id="6CQk6mnDEUpKW-EuEVKs-18" value="10" style="rounded=0;whiteSpace=wrap;html=1;" vertex="1" parent="1">
          <mxGeometry x="676" y="156" width="63" height="29" as="geometry" />
        </mxCell>
        <mxCell id="6CQk6mnDEUpKW-EuEVKs-22" value="" style="html=1;shadow=0;dashed=0;align=center;verticalAlign=middle;shape=mxgraph.arrows2.arrow;dy=0.6;dx=40;notch=15;fillColor=#dae8fc;strokeColor=#6c8ebf;" vertex="1" parent="1">
          <mxGeometry x="480" y="204" width="86" height="30" as="geometry" />
        </mxCell>
        <mxCell id="6CQk6mnDEUpKW-EuEVKs-23" value="17" style="rounded=0;whiteSpace=wrap;html=1;fillColor=#f8cecc;strokeColor=#b85450;" vertex="1" parent="1">
          <mxGeometry x="917" y="251" width="63" height="29" as="geometry" />
        </mxCell>
        <mxCell id="6CQk6mnDEUpKW-EuEVKs-24" value="5" style="rounded=0;whiteSpace=wrap;html=1;" vertex="1" parent="1">
          <mxGeometry x="165" y="451" width="63" height="29" as="geometry" />
        </mxCell>
        <mxCell id="6CQk6mnDEUpKW-EuEVKs-25" style="edgeStyle=none;rounded=0;orthogonalLoop=1;jettySize=auto;html=1;exitX=1;exitY=0.5;exitDx=0;exitDy=0;" edge="1" parent="1" source="6CQk6mnDEUpKW-EuEVKs-26" target="6CQk6mnDEUpKW-EuEVKs-27">
          <mxGeometry relative="1" as="geometry" />
        </mxCell>
        <mxCell id="6CQk6mnDEUpKW-EuEVKs-26" value="8" style="rounded=0;whiteSpace=wrap;html=1;" vertex="1" parent="1">
          <mxGeometry x="228" y="451" width="63" height="29" as="geometry" />
        </mxCell>
        <mxCell id="6CQk6mnDEUpKW-EuEVKs-27" value="10" style="rounded=0;whiteSpace=wrap;html=1;" vertex="1" parent="1">
          <mxGeometry x="338" y="451" width="63" height="29" as="geometry" />
        </mxCell>
        <mxCell id="6CQk6mnDEUpKW-EuEVKs-28" value="15" style="rounded=0;whiteSpace=wrap;html=1;" vertex="1" parent="1">
          <mxGeometry x="401" y="451" width="63" height="29" as="geometry" />
        </mxCell>
        <mxCell id="6CQk6mnDEUpKW-EuEVKs-29" value="16" style="rounded=0;whiteSpace=wrap;html=1;" vertex="1" parent="1">
          <mxGeometry x="464" y="451" width="63" height="29" as="geometry" />
        </mxCell>
        <mxCell id="6CQk6mnDEUpKW-EuEVKs-30" style="edgeStyle=none;rounded=0;orthogonalLoop=1;jettySize=auto;html=1;exitX=0;exitY=1;exitDx=0;exitDy=0;entryX=0;entryY=0;entryDx=0;entryDy=0;" edge="1" parent="1" source="6CQk6mnDEUpKW-EuEVKs-32" target="6CQk6mnDEUpKW-EuEVKs-26">
          <mxGeometry relative="1" as="geometry" />
        </mxCell>
        <mxCell id="6CQk6mnDEUpKW-EuEVKs-31" style="edgeStyle=none;rounded=0;orthogonalLoop=1;jettySize=auto;html=1;exitX=1;exitY=1;exitDx=0;exitDy=0;entryX=0.5;entryY=0;entryDx=0;entryDy=0;" edge="1" parent="1" source="6CQk6mnDEUpKW-EuEVKs-32" target="6CQk6mnDEUpKW-EuEVKs-28">
          <mxGeometry relative="1" as="geometry" />
        </mxCell>
        <mxCell id="6CQk6mnDEUpKW-EuEVKs-32" value="10" style="rounded=0;whiteSpace=wrap;html=1;" vertex="1" parent="1">
          <mxGeometry x="286" y="356" width="63" height="29" as="geometry" />
        </mxCell>
        <mxCell id="6CQk6mnDEUpKW-EuEVKs-33" value="17" style="rounded=0;whiteSpace=wrap;html=1;" vertex="1" parent="1">
          <mxGeometry x="527" y="451" width="63" height="29" as="geometry" />
        </mxCell>
        <mxCell id="6CQk6mnDEUpKW-EuEVKs-34" value="18" style="rounded=0;whiteSpace=wrap;html=1;fillColor=#f8cecc;strokeColor=#b85450;" vertex="1" parent="1">
          <mxGeometry x="590" y="451" width="63" height="29" as="geometry" />
        </mxCell>
        <mxCell id="6CQk6mnDEUpKW-EuEVKs-35" value="5" style="rounded=0;whiteSpace=wrap;html=1;" vertex="1" parent="1">
          <mxGeometry x="676" y="451" width="63" height="29" as="geometry" />
        </mxCell>
        <mxCell id="6CQk6mnDEUpKW-EuEVKs-36" style="edgeStyle=none;rounded=0;orthogonalLoop=1;jettySize=auto;html=1;exitX=1;exitY=0.5;exitDx=0;exitDy=0;" edge="1" parent="1" source="6CQk6mnDEUpKW-EuEVKs-37" target="6CQk6mnDEUpKW-EuEVKs-38">
          <mxGeometry relative="1" as="geometry" />
        </mxCell>
        <mxCell id="6CQk6mnDEUpKW-EuEVKs-37" value="8" style="rounded=0;whiteSpace=wrap;html=1;" vertex="1" parent="1">
          <mxGeometry x="739" y="451" width="63" height="29" as="geometry" />
        </mxCell>
        <mxCell id="6CQk6mnDEUpKW-EuEVKs-38" value="10" style="rounded=0;whiteSpace=wrap;html=1;" vertex="1" parent="1">
          <mxGeometry x="849" y="451" width="63" height="29" as="geometry" />
        </mxCell>
        <mxCell id="6CQk6mnDEUpKW-EuEVKs-59" style="edgeStyle=none;rounded=0;orthogonalLoop=1;jettySize=auto;html=1;exitX=1;exitY=0.5;exitDx=0;exitDy=0;entryX=0;entryY=0.5;entryDx=0;entryDy=0;" edge="1" parent="1" source="6CQk6mnDEUpKW-EuEVKs-39" target="6CQk6mnDEUpKW-EuEVKs-40">
          <mxGeometry relative="1" as="geometry" />
        </mxCell>
        <mxCell id="6CQk6mnDEUpKW-EuEVKs-39" value="15" style="rounded=0;whiteSpace=wrap;html=1;" vertex="1" parent="1">
          <mxGeometry x="912" y="451" width="63" height="29" as="geometry" />
        </mxCell>
        <mxCell id="6CQk6mnDEUpKW-EuEVKs-40" value="16" style="rounded=0;whiteSpace=wrap;html=1;" vertex="1" parent="1">
          <mxGeometry x="1013" y="451" width="63" height="29" as="geometry" />
        </mxCell>
        <mxCell id="6CQk6mnDEUpKW-EuEVKs-41" style="edgeStyle=none;rounded=0;orthogonalLoop=1;jettySize=auto;html=1;exitX=0;exitY=1;exitDx=0;exitDy=0;entryX=0;entryY=0;entryDx=0;entryDy=0;" edge="1" parent="1" source="6CQk6mnDEUpKW-EuEVKs-43" target="6CQk6mnDEUpKW-EuEVKs-37">
          <mxGeometry relative="1" as="geometry" />
        </mxCell>
        <mxCell id="6CQk6mnDEUpKW-EuEVKs-42" style="edgeStyle=none;rounded=0;orthogonalLoop=1;jettySize=auto;html=1;exitX=1;exitY=1;exitDx=0;exitDy=0;entryX=0;entryY=0;entryDx=0;entryDy=0;" edge="1" parent="1" source="6CQk6mnDEUpKW-EuEVKs-43" target="6CQk6mnDEUpKW-EuEVKs-39">
          <mxGeometry relative="1" as="geometry" />
        </mxCell>
        <mxCell id="6CQk6mnDEUpKW-EuEVKs-43" value="10" style="rounded=0;whiteSpace=wrap;html=1;" vertex="1" parent="1">
          <mxGeometry x="849" y="361" width="63" height="29" as="geometry" />
        </mxCell>
        <mxCell id="6CQk6mnDEUpKW-EuEVKs-44" value="17" style="rounded=0;whiteSpace=wrap;html=1;" vertex="1" parent="1">
          <mxGeometry x="1076" y="451" width="63" height="29" as="geometry" />
        </mxCell>
        <mxCell id="6CQk6mnDEUpKW-EuEVKs-45" value="18" style="rounded=0;whiteSpace=wrap;html=1;fillColor=#f8cecc;strokeColor=#b85450;" vertex="1" parent="1">
          <mxGeometry x="1139" y="451" width="63" height="29" as="geometry" />
        </mxCell>
        <mxCell id="6CQk6mnDEUpKW-EuEVKs-58" style="edgeStyle=none;rounded=0;orthogonalLoop=1;jettySize=auto;html=1;exitX=1;exitY=1;exitDx=0;exitDy=0;entryX=0.5;entryY=0;entryDx=0;entryDy=0;" edge="1" parent="1" source="6CQk6mnDEUpKW-EuEVKs-57" target="6CQk6mnDEUpKW-EuEVKs-44">
          <mxGeometry relative="1" as="geometry" />
        </mxCell>
        <mxCell id="6CQk6mnDEUpKW-EuEVKs-57" value="16" style="rounded=0;whiteSpace=wrap;html=1;" vertex="1" parent="1">
          <mxGeometry x="912" y="361" width="63" height="29" as="geometry" />
        </mxCell>
        <mxCell id="6CQk6mnDEUpKW-EuEVKs-60" value="" style="html=1;shadow=0;dashed=0;align=center;verticalAlign=middle;shape=mxgraph.arrows2.arrow;dy=0.6;dx=40;notch=15;fillColor=#dae8fc;strokeColor=#6c8ebf;" vertex="1" parent="1">
          <mxGeometry x="626" y="388" width="86" height="30" as="geometry" />
        </mxCell>
        <mxCell id="6CQk6mnDEUpKW-EuEVKs-61" value="8" style="rounded=0;whiteSpace=wrap;html=1;" vertex="1" parent="1">
          <mxGeometry x="235" y="647" width="63" height="29" as="geometry" />
        </mxCell>
        <mxCell id="6CQk6mnDEUpKW-EuEVKs-62" style="edgeStyle=none;rounded=0;orthogonalLoop=1;jettySize=auto;html=1;exitX=1;exitY=0.5;exitDx=0;exitDy=0;" edge="1" parent="1" source="6CQk6mnDEUpKW-EuEVKs-63" target="6CQk6mnDEUpKW-EuEVKs-64">
          <mxGeometry relative="1" as="geometry" />
        </mxCell>
        <mxCell id="6CQk6mnDEUpKW-EuEVKs-63" value="9" style="rounded=0;whiteSpace=wrap;html=1;" vertex="1" parent="1">
          <mxGeometry x="298" y="647" width="63" height="29" as="geometry" />
        </mxCell>
        <mxCell id="6CQk6mnDEUpKW-EuEVKs-64" value="10" style="rounded=0;whiteSpace=wrap;html=1;" vertex="1" parent="1">
          <mxGeometry x="388" y="647" width="63" height="29" as="geometry" />
        </mxCell>
        <mxCell id="6CQk6mnDEUpKW-EuEVKs-65" style="edgeStyle=none;rounded=0;orthogonalLoop=1;jettySize=auto;html=1;exitX=1;exitY=0.5;exitDx=0;exitDy=0;entryX=0;entryY=0.5;entryDx=0;entryDy=0;" edge="1" parent="1" source="6CQk6mnDEUpKW-EuEVKs-66" target="6CQk6mnDEUpKW-EuEVKs-67">
          <mxGeometry relative="1" as="geometry" />
        </mxCell>
        <mxCell id="6CQk6mnDEUpKW-EuEVKs-66" value="15" style="rounded=0;whiteSpace=wrap;html=1;" vertex="1" parent="1">
          <mxGeometry x="451" y="647" width="63" height="29" as="geometry" />
        </mxCell>
        <mxCell id="6CQk6mnDEUpKW-EuEVKs-67" value="16" style="rounded=0;whiteSpace=wrap;html=1;" vertex="1" parent="1">
          <mxGeometry x="552" y="647" width="63" height="29" as="geometry" />
        </mxCell>
        <mxCell id="6CQk6mnDEUpKW-EuEVKs-68" style="edgeStyle=none;rounded=0;orthogonalLoop=1;jettySize=auto;html=1;exitX=0;exitY=1;exitDx=0;exitDy=0;entryX=1;entryY=0;entryDx=0;entryDy=0;" edge="1" parent="1" source="6CQk6mnDEUpKW-EuEVKs-70" target="6CQk6mnDEUpKW-EuEVKs-78">
          <mxGeometry relative="1" as="geometry" />
        </mxCell>
        <mxCell id="6CQk6mnDEUpKW-EuEVKs-69" style="edgeStyle=none;rounded=0;orthogonalLoop=1;jettySize=auto;html=1;exitX=1;exitY=1;exitDx=0;exitDy=0;entryX=0;entryY=0;entryDx=0;entryDy=0;" edge="1" parent="1" source="6CQk6mnDEUpKW-EuEVKs-70" target="6CQk6mnDEUpKW-EuEVKs-66">
          <mxGeometry relative="1" as="geometry" />
        </mxCell>
        <mxCell id="6CQk6mnDEUpKW-EuEVKs-70" value="10" style="rounded=0;whiteSpace=wrap;html=1;" vertex="1" parent="1">
          <mxGeometry x="478.5" y="557" width="63" height="29" as="geometry" />
        </mxCell>
        <mxCell id="6CQk6mnDEUpKW-EuEVKs-86" style="edgeStyle=none;rounded=0;orthogonalLoop=1;jettySize=auto;html=1;exitX=1;exitY=0.5;exitDx=0;exitDy=0;entryX=0;entryY=0.5;entryDx=0;entryDy=0;" edge="1" parent="1" source="6CQk6mnDEUpKW-EuEVKs-71" target="6CQk6mnDEUpKW-EuEVKs-72">
          <mxGeometry relative="1" as="geometry" />
        </mxCell>
        <mxCell id="6CQk6mnDEUpKW-EuEVKs-71" value="17" style="rounded=0;whiteSpace=wrap;html=1;" vertex="1" parent="1">
          <mxGeometry x="615" y="647" width="63" height="29" as="geometry" />
        </mxCell>
        <mxCell id="6CQk6mnDEUpKW-EuEVKs-72" value="18" style="rounded=0;whiteSpace=wrap;html=1;" vertex="1" parent="1">
          <mxGeometry x="714" y="647" width="63" height="29" as="geometry" />
        </mxCell>
        <mxCell id="6CQk6mnDEUpKW-EuEVKs-73" style="edgeStyle=none;rounded=0;orthogonalLoop=1;jettySize=auto;html=1;exitX=1;exitY=1;exitDx=0;exitDy=0;entryX=0.5;entryY=0;entryDx=0;entryDy=0;" edge="1" parent="1" source="6CQk6mnDEUpKW-EuEVKs-74" target="6CQk6mnDEUpKW-EuEVKs-71">
          <mxGeometry relative="1" as="geometry" />
        </mxCell>
        <mxCell id="6CQk6mnDEUpKW-EuEVKs-74" value="16" style="rounded=0;whiteSpace=wrap;html=1;" vertex="1" parent="1">
          <mxGeometry x="541.5" y="557" width="63" height="29" as="geometry" />
        </mxCell>
        <mxCell id="6CQk6mnDEUpKW-EuEVKs-83" style="edgeStyle=none;rounded=0;orthogonalLoop=1;jettySize=auto;html=1;exitX=1;exitY=1;exitDx=0;exitDy=0;entryX=0;entryY=0;entryDx=0;entryDy=0;" edge="1" parent="1" source="6CQk6mnDEUpKW-EuEVKs-75" target="6CQk6mnDEUpKW-EuEVKs-79">
          <mxGeometry relative="1" as="geometry" />
        </mxCell>
        <mxCell id="6CQk6mnDEUpKW-EuEVKs-75" value="18" style="rounded=0;whiteSpace=wrap;html=1;" vertex="1" parent="1">
          <mxGeometry x="604.5" y="557" width="63" height="29" as="geometry" />
        </mxCell>
        <mxCell id="6CQk6mnDEUpKW-EuEVKs-84" style="edgeStyle=none;rounded=0;orthogonalLoop=1;jettySize=auto;html=1;exitX=1;exitY=1;exitDx=0;exitDy=0;entryX=0.5;entryY=0;entryDx=0;entryDy=0;" edge="1" parent="1" source="6CQk6mnDEUpKW-EuEVKs-76" target="6CQk6mnDEUpKW-EuEVKs-81">
          <mxGeometry relative="1" as="geometry" />
        </mxCell>
        <mxCell id="6CQk6mnDEUpKW-EuEVKs-76" value="20" style="rounded=0;whiteSpace=wrap;html=1;" vertex="1" parent="1">
          <mxGeometry x="667.5" y="557" width="63" height="29" as="geometry" />
        </mxCell>
        <mxCell id="6CQk6mnDEUpKW-EuEVKs-77" value="5" style="rounded=0;whiteSpace=wrap;html=1;" vertex="1" parent="1">
          <mxGeometry x="46" y="647" width="63" height="29" as="geometry" />
        </mxCell>
        <mxCell id="6CQk6mnDEUpKW-EuEVKs-78" value="6" style="rounded=0;whiteSpace=wrap;html=1;" vertex="1" parent="1">
          <mxGeometry x="109" y="647" width="63" height="29" as="geometry" />
        </mxCell>
        <mxCell id="6CQk6mnDEUpKW-EuEVKs-88" style="edgeStyle=none;rounded=0;orthogonalLoop=1;jettySize=auto;html=1;exitX=1;exitY=0.5;exitDx=0;exitDy=0;entryX=0;entryY=0.5;entryDx=0;entryDy=0;" edge="1" parent="1" source="6CQk6mnDEUpKW-EuEVKs-79" target="6CQk6mnDEUpKW-EuEVKs-80">
          <mxGeometry relative="1" as="geometry" />
        </mxCell>
        <mxCell id="6CQk6mnDEUpKW-EuEVKs-79" value="19" style="rounded=0;whiteSpace=wrap;html=1;" vertex="1" parent="1">
          <mxGeometry x="777" y="647" width="63" height="29" as="geometry" />
        </mxCell>
        <mxCell id="6CQk6mnDEUpKW-EuEVKs-80" value="20" style="rounded=0;whiteSpace=wrap;html=1;" vertex="1" parent="1">
          <mxGeometry x="863.5" y="647" width="63" height="29" as="geometry" />
        </mxCell>
        <mxCell id="6CQk6mnDEUpKW-EuEVKs-81" value="21" style="rounded=0;whiteSpace=wrap;html=1;" vertex="1" parent="1">
          <mxGeometry x="926.5" y="647" width="63" height="29" as="geometry" />
        </mxCell>
        <mxCell id="6CQk6mnDEUpKW-EuEVKs-82" value="22" style="rounded=0;whiteSpace=wrap;html=1;" vertex="1" parent="1">
          <mxGeometry x="989.5" y="647" width="63" height="29" as="geometry" />
        </mxCell>
        <mxCell id="6CQk6mnDEUpKW-EuEVKs-89" value="7" style="rounded=0;whiteSpace=wrap;html=1;fillColor=#f8cecc;strokeColor=#b85450;" vertex="1" parent="1">
          <mxGeometry x="172" y="647" width="63" height="29" as="geometry" />
        </mxCell>
        <mxCell id="6CQk6mnDEUpKW-EuEVKs-90" value="8" style="rounded=0;whiteSpace=wrap;html=1;" vertex="1" parent="1">
          <mxGeometry x="239" y="913" width="63" height="29" as="geometry" />
        </mxCell>
        <mxCell id="6CQk6mnDEUpKW-EuEVKs-91" style="edgeStyle=none;rounded=0;orthogonalLoop=1;jettySize=auto;html=1;exitX=1;exitY=0.5;exitDx=0;exitDy=0;" edge="1" parent="1" source="6CQk6mnDEUpKW-EuEVKs-92" target="6CQk6mnDEUpKW-EuEVKs-93">
          <mxGeometry relative="1" as="geometry" />
        </mxCell>
        <mxCell id="6CQk6mnDEUpKW-EuEVKs-92" value="9" style="rounded=0;whiteSpace=wrap;html=1;" vertex="1" parent="1">
          <mxGeometry x="302" y="913" width="63" height="29" as="geometry" />
        </mxCell>
        <mxCell id="6CQk6mnDEUpKW-EuEVKs-93" value="10" style="rounded=0;whiteSpace=wrap;html=1;" vertex="1" parent="1">
          <mxGeometry x="392" y="913" width="63" height="29" as="geometry" />
        </mxCell>
        <mxCell id="6CQk6mnDEUpKW-EuEVKs-94" style="edgeStyle=none;rounded=0;orthogonalLoop=1;jettySize=auto;html=1;exitX=1;exitY=0.5;exitDx=0;exitDy=0;entryX=0;entryY=0.5;entryDx=0;entryDy=0;" edge="1" parent="1" source="6CQk6mnDEUpKW-EuEVKs-95" target="6CQk6mnDEUpKW-EuEVKs-96">
          <mxGeometry relative="1" as="geometry" />
        </mxCell>
        <mxCell id="6CQk6mnDEUpKW-EuEVKs-95" value="15" style="rounded=0;whiteSpace=wrap;html=1;" vertex="1" parent="1">
          <mxGeometry x="455" y="913" width="63" height="29" as="geometry" />
        </mxCell>
        <mxCell id="6CQk6mnDEUpKW-EuEVKs-96" value="16" style="rounded=0;whiteSpace=wrap;html=1;" vertex="1" parent="1">
          <mxGeometry x="556" y="913" width="63" height="29" as="geometry" />
        </mxCell>
        <mxCell id="6CQk6mnDEUpKW-EuEVKs-98" style="edgeStyle=none;rounded=0;orthogonalLoop=1;jettySize=auto;html=1;exitX=1;exitY=1;exitDx=0;exitDy=0;entryX=0;entryY=0;entryDx=0;entryDy=0;" edge="1" parent="1" source="6CQk6mnDEUpKW-EuEVKs-99" target="6CQk6mnDEUpKW-EuEVKs-95">
          <mxGeometry relative="1" as="geometry" />
        </mxCell>
        <mxCell id="6CQk6mnDEUpKW-EuEVKs-99" value="10" style="rounded=0;whiteSpace=wrap;html=1;" vertex="1" parent="1">
          <mxGeometry x="482.5" y="823" width="63" height="29" as="geometry" />
        </mxCell>
        <mxCell id="6CQk6mnDEUpKW-EuEVKs-100" style="edgeStyle=none;rounded=0;orthogonalLoop=1;jettySize=auto;html=1;exitX=1;exitY=0.5;exitDx=0;exitDy=0;entryX=0;entryY=0.5;entryDx=0;entryDy=0;" edge="1" parent="1" source="6CQk6mnDEUpKW-EuEVKs-101" target="6CQk6mnDEUpKW-EuEVKs-102">
          <mxGeometry relative="1" as="geometry" />
        </mxCell>
        <mxCell id="6CQk6mnDEUpKW-EuEVKs-101" value="17" style="rounded=0;whiteSpace=wrap;html=1;" vertex="1" parent="1">
          <mxGeometry x="619" y="913" width="63" height="29" as="geometry" />
        </mxCell>
        <mxCell id="6CQk6mnDEUpKW-EuEVKs-102" value="18" style="rounded=0;whiteSpace=wrap;html=1;" vertex="1" parent="1">
          <mxGeometry x="718" y="913" width="63" height="29" as="geometry" />
        </mxCell>
        <mxCell id="6CQk6mnDEUpKW-EuEVKs-103" style="edgeStyle=none;rounded=0;orthogonalLoop=1;jettySize=auto;html=1;exitX=1;exitY=1;exitDx=0;exitDy=0;entryX=0.5;entryY=0;entryDx=0;entryDy=0;" edge="1" parent="1" source="6CQk6mnDEUpKW-EuEVKs-104" target="6CQk6mnDEUpKW-EuEVKs-101">
          <mxGeometry relative="1" as="geometry" />
        </mxCell>
        <mxCell id="6CQk6mnDEUpKW-EuEVKs-104" value="16" style="rounded=0;whiteSpace=wrap;html=1;" vertex="1" parent="1">
          <mxGeometry x="545.5" y="823" width="63" height="29" as="geometry" />
        </mxCell>
        <mxCell id="6CQk6mnDEUpKW-EuEVKs-105" style="edgeStyle=none;rounded=0;orthogonalLoop=1;jettySize=auto;html=1;exitX=1;exitY=1;exitDx=0;exitDy=0;entryX=0;entryY=0;entryDx=0;entryDy=0;" edge="1" parent="1" source="6CQk6mnDEUpKW-EuEVKs-106" target="6CQk6mnDEUpKW-EuEVKs-112">
          <mxGeometry relative="1" as="geometry" />
        </mxCell>
        <mxCell id="6CQk6mnDEUpKW-EuEVKs-106" value="18" style="rounded=0;whiteSpace=wrap;html=1;" vertex="1" parent="1">
          <mxGeometry x="608.5" y="823" width="63" height="29" as="geometry" />
        </mxCell>
        <mxCell id="6CQk6mnDEUpKW-EuEVKs-107" style="edgeStyle=none;rounded=0;orthogonalLoop=1;jettySize=auto;html=1;exitX=1;exitY=1;exitDx=0;exitDy=0;entryX=0.5;entryY=0;entryDx=0;entryDy=0;" edge="1" parent="1" source="6CQk6mnDEUpKW-EuEVKs-108" target="6CQk6mnDEUpKW-EuEVKs-114">
          <mxGeometry relative="1" as="geometry" />
        </mxCell>
        <mxCell id="6CQk6mnDEUpKW-EuEVKs-108" value="20" style="rounded=0;whiteSpace=wrap;html=1;" vertex="1" parent="1">
          <mxGeometry x="671.5" y="823" width="63" height="29" as="geometry" />
        </mxCell>
        <mxCell id="6CQk6mnDEUpKW-EuEVKs-109" value="5" style="rounded=0;whiteSpace=wrap;html=1;" vertex="1" parent="1">
          <mxGeometry x="25" y="913" width="63" height="29" as="geometry" />
        </mxCell>
        <mxCell id="6CQk6mnDEUpKW-EuEVKs-110" value="6" style="rounded=0;whiteSpace=wrap;html=1;" vertex="1" parent="1">
          <mxGeometry x="88" y="913" width="63" height="29" as="geometry" />
        </mxCell>
        <mxCell id="6CQk6mnDEUpKW-EuEVKs-111" style="edgeStyle=none;rounded=0;orthogonalLoop=1;jettySize=auto;html=1;exitX=1;exitY=0.5;exitDx=0;exitDy=0;entryX=0;entryY=0.5;entryDx=0;entryDy=0;" edge="1" parent="1" source="6CQk6mnDEUpKW-EuEVKs-112" target="6CQk6mnDEUpKW-EuEVKs-113">
          <mxGeometry relative="1" as="geometry" />
        </mxCell>
        <mxCell id="6CQk6mnDEUpKW-EuEVKs-112" value="19" style="rounded=0;whiteSpace=wrap;html=1;" vertex="1" parent="1">
          <mxGeometry x="781" y="913" width="63" height="29" as="geometry" />
        </mxCell>
        <mxCell id="6CQk6mnDEUpKW-EuEVKs-113" value="20" style="rounded=0;whiteSpace=wrap;html=1;" vertex="1" parent="1">
          <mxGeometry x="867.5" y="913" width="63" height="29" as="geometry" />
        </mxCell>
        <mxCell id="6CQk6mnDEUpKW-EuEVKs-114" value="21" style="rounded=0;whiteSpace=wrap;html=1;" vertex="1" parent="1">
          <mxGeometry x="930.5" y="913" width="63" height="29" as="geometry" />
        </mxCell>
        <mxCell id="6CQk6mnDEUpKW-EuEVKs-115" value="22" style="rounded=0;whiteSpace=wrap;html=1;" vertex="1" parent="1">
          <mxGeometry x="993.5" y="913" width="63" height="29" as="geometry" />
        </mxCell>
        <mxCell id="6CQk6mnDEUpKW-EuEVKs-116" value="7" style="rounded=0;whiteSpace=wrap;html=1;" vertex="1" parent="1">
          <mxGeometry x="176" y="913" width="63" height="29" as="geometry" />
        </mxCell>
        <mxCell id="6CQk6mnDEUpKW-EuEVKs-118" style="edgeStyle=none;rounded=0;orthogonalLoop=1;jettySize=auto;html=1;exitX=1;exitY=1;exitDx=0;exitDy=0;entryX=0.5;entryY=0;entryDx=0;entryDy=0;" edge="1" parent="1" source="6CQk6mnDEUpKW-EuEVKs-117" target="6CQk6mnDEUpKW-EuEVKs-90">
          <mxGeometry relative="1" as="geometry" />
        </mxCell>
        <mxCell id="6CQk6mnDEUpKW-EuEVKs-119" style="edgeStyle=none;rounded=0;orthogonalLoop=1;jettySize=auto;html=1;exitX=0;exitY=1;exitDx=0;exitDy=0;entryX=0;entryY=0;entryDx=0;entryDy=0;" edge="1" parent="1" source="6CQk6mnDEUpKW-EuEVKs-117" target="6CQk6mnDEUpKW-EuEVKs-110">
          <mxGeometry relative="1" as="geometry" />
        </mxCell>
        <mxCell id="6CQk6mnDEUpKW-EuEVKs-117" value="7" style="rounded=0;whiteSpace=wrap;html=1;" vertex="1" parent="1">
          <mxGeometry x="419.5" y="823" width="63" height="29" as="geometry" />
        </mxCell>
        <mxCell id="6CQk6mnDEUpKW-EuEVKs-152" style="edgeStyle=none;rounded=0;orthogonalLoop=1;jettySize=auto;html=1;exitX=1;exitY=0.5;exitDx=0;exitDy=0;entryX=0;entryY=0.5;entryDx=0;entryDy=0;" edge="1" parent="1" source="6CQk6mnDEUpKW-EuEVKs-120" target="6CQk6mnDEUpKW-EuEVKs-123">
          <mxGeometry relative="1" as="geometry" />
        </mxCell>
        <mxCell id="6CQk6mnDEUpKW-EuEVKs-120" value="8" style="rounded=0;whiteSpace=wrap;html=1;" vertex="1" parent="1">
          <mxGeometry x="302" y="1193" width="63" height="29" as="geometry" />
        </mxCell>
        <mxCell id="6CQk6mnDEUpKW-EuEVKs-123" value="9" style="rounded=0;whiteSpace=wrap;html=1;" vertex="1" parent="1">
          <mxGeometry x="392" y="1193" width="63" height="29" as="geometry" />
        </mxCell>
        <mxCell id="6CQk6mnDEUpKW-EuEVKs-124" style="edgeStyle=none;rounded=0;orthogonalLoop=1;jettySize=auto;html=1;exitX=1;exitY=0.5;exitDx=0;exitDy=0;entryX=0;entryY=0.5;entryDx=0;entryDy=0;" edge="1" parent="1" source="6CQk6mnDEUpKW-EuEVKs-125" target="6CQk6mnDEUpKW-EuEVKs-126">
          <mxGeometry relative="1" as="geometry" />
        </mxCell>
        <mxCell id="6CQk6mnDEUpKW-EuEVKs-125" value="10" style="rounded=0;whiteSpace=wrap;html=1;" vertex="1" parent="1">
          <mxGeometry x="455" y="1193" width="63" height="29" as="geometry" />
        </mxCell>
        <mxCell id="6CQk6mnDEUpKW-EuEVKs-126" value="16" style="rounded=0;whiteSpace=wrap;html=1;" vertex="1" parent="1">
          <mxGeometry x="556" y="1193" width="63" height="29" as="geometry" />
        </mxCell>
        <mxCell id="6CQk6mnDEUpKW-EuEVKs-127" style="edgeStyle=none;rounded=0;orthogonalLoop=1;jettySize=auto;html=1;exitX=1;exitY=1;exitDx=0;exitDy=0;entryX=0;entryY=0;entryDx=0;entryDy=0;" edge="1" parent="1" source="6CQk6mnDEUpKW-EuEVKs-128" target="6CQk6mnDEUpKW-EuEVKs-125">
          <mxGeometry relative="1" as="geometry" />
        </mxCell>
        <mxCell id="6CQk6mnDEUpKW-EuEVKs-154" style="edgeStyle=none;rounded=0;orthogonalLoop=1;jettySize=auto;html=1;exitX=0;exitY=1;exitDx=0;exitDy=0;entryX=0.5;entryY=0;entryDx=0;entryDy=0;" edge="1" parent="1" source="6CQk6mnDEUpKW-EuEVKs-128" target="6CQk6mnDEUpKW-EuEVKs-139">
          <mxGeometry relative="1" as="geometry" />
        </mxCell>
        <mxCell id="6CQk6mnDEUpKW-EuEVKs-128" value="9" style="rounded=0;whiteSpace=wrap;html=1;" vertex="1" parent="1">
          <mxGeometry x="492" y="1090" width="63" height="29" as="geometry" />
        </mxCell>
        <mxCell id="6CQk6mnDEUpKW-EuEVKs-129" style="edgeStyle=none;rounded=0;orthogonalLoop=1;jettySize=auto;html=1;exitX=1;exitY=0.5;exitDx=0;exitDy=0;entryX=0;entryY=0.5;entryDx=0;entryDy=0;" edge="1" parent="1" source="6CQk6mnDEUpKW-EuEVKs-130" target="6CQk6mnDEUpKW-EuEVKs-131">
          <mxGeometry relative="1" as="geometry" />
        </mxCell>
        <mxCell id="6CQk6mnDEUpKW-EuEVKs-130" value="17" style="rounded=0;whiteSpace=wrap;html=1;" vertex="1" parent="1">
          <mxGeometry x="619" y="1193" width="63" height="29" as="geometry" />
        </mxCell>
        <mxCell id="6CQk6mnDEUpKW-EuEVKs-131" value="18" style="rounded=0;whiteSpace=wrap;html=1;" vertex="1" parent="1">
          <mxGeometry x="718" y="1193" width="63" height="29" as="geometry" />
        </mxCell>
        <mxCell id="6CQk6mnDEUpKW-EuEVKs-133" value="16" style="rounded=0;whiteSpace=wrap;html=1;" vertex="1" parent="1">
          <mxGeometry x="555" y="1090" width="63" height="29" as="geometry" />
        </mxCell>
        <mxCell id="6CQk6mnDEUpKW-EuEVKs-134" style="edgeStyle=none;rounded=0;orthogonalLoop=1;jettySize=auto;html=1;exitX=1;exitY=1;exitDx=0;exitDy=0;entryX=0;entryY=0;entryDx=0;entryDy=0;" edge="1" parent="1" source="6CQk6mnDEUpKW-EuEVKs-135" target="6CQk6mnDEUpKW-EuEVKs-141">
          <mxGeometry relative="1" as="geometry" />
        </mxCell>
        <mxCell id="6CQk6mnDEUpKW-EuEVKs-149" style="edgeStyle=none;rounded=0;orthogonalLoop=1;jettySize=auto;html=1;exitX=0;exitY=1;exitDx=0;exitDy=0;entryX=1;entryY=0;entryDx=0;entryDy=0;" edge="1" parent="1" source="6CQk6mnDEUpKW-EuEVKs-135" target="6CQk6mnDEUpKW-EuEVKs-126">
          <mxGeometry relative="1" as="geometry" />
        </mxCell>
        <mxCell id="6CQk6mnDEUpKW-EuEVKs-135" value="18" style="rounded=0;whiteSpace=wrap;html=1;" vertex="1" parent="1">
          <mxGeometry x="618" y="1090" width="63" height="29" as="geometry" />
        </mxCell>
        <mxCell id="6CQk6mnDEUpKW-EuEVKs-136" style="edgeStyle=none;rounded=0;orthogonalLoop=1;jettySize=auto;html=1;exitX=1;exitY=1;exitDx=0;exitDy=0;entryX=0.5;entryY=0;entryDx=0;entryDy=0;" edge="1" parent="1" source="6CQk6mnDEUpKW-EuEVKs-137" target="6CQk6mnDEUpKW-EuEVKs-143">
          <mxGeometry relative="1" as="geometry" />
        </mxCell>
        <mxCell id="6CQk6mnDEUpKW-EuEVKs-137" value="20" style="rounded=0;whiteSpace=wrap;html=1;" vertex="1" parent="1">
          <mxGeometry x="681" y="1090" width="63" height="29" as="geometry" />
        </mxCell>
        <mxCell id="6CQk6mnDEUpKW-EuEVKs-138" value="5" style="rounded=0;whiteSpace=wrap;html=1;" vertex="1" parent="1">
          <mxGeometry x="176" y="1193" width="63" height="29" as="geometry" />
        </mxCell>
        <mxCell id="6CQk6mnDEUpKW-EuEVKs-139" value="6" style="rounded=0;whiteSpace=wrap;html=1;" vertex="1" parent="1">
          <mxGeometry x="239" y="1193" width="63" height="29" as="geometry" />
        </mxCell>
        <mxCell id="6CQk6mnDEUpKW-EuEVKs-140" style="edgeStyle=none;rounded=0;orthogonalLoop=1;jettySize=auto;html=1;exitX=1;exitY=0.5;exitDx=0;exitDy=0;entryX=0;entryY=0.5;entryDx=0;entryDy=0;" edge="1" parent="1" source="6CQk6mnDEUpKW-EuEVKs-141" target="6CQk6mnDEUpKW-EuEVKs-142">
          <mxGeometry relative="1" as="geometry" />
        </mxCell>
        <mxCell id="6CQk6mnDEUpKW-EuEVKs-141" value="19" style="rounded=0;whiteSpace=wrap;html=1;" vertex="1" parent="1">
          <mxGeometry x="781" y="1193" width="63" height="29" as="geometry" />
        </mxCell>
        <mxCell id="6CQk6mnDEUpKW-EuEVKs-142" value="20" style="rounded=0;whiteSpace=wrap;html=1;" vertex="1" parent="1">
          <mxGeometry x="867.5" y="1193" width="63" height="29" as="geometry" />
        </mxCell>
        <mxCell id="6CQk6mnDEUpKW-EuEVKs-143" value="21" style="rounded=0;whiteSpace=wrap;html=1;" vertex="1" parent="1">
          <mxGeometry x="930.5" y="1193" width="63" height="29" as="geometry" />
        </mxCell>
      </root>
    </mxGraphModel>
  </diagram>
</mxfile>
